<?xml version="1.0" encoding="UTF-8" standalone="no"?>
<!-- Created with Inkscape (http://www.inkscape.org/) -->

<svg
   width="164.70238"
   height="171.49741"
   viewBox="0 0 164.70238 171.49741"
   version="1.1"
   id="svg1"
   xml:space="preserve"
   xmlns="http://www.w3.org/2000/svg"
   xmlns:svg="http://www.w3.org/2000/svg"><defs
     id="defs1" /><g
     id="layer1"
     transform="translate(-3.2587813,-5.2751349)"><path
       style="fill:#ffffff;stroke-width:0.260291"
       d="m 10.471784,176.27263 c -0.8107986,-0.25931 -1.8873206,-0.72679 -2.3922546,-1.03886 -1.474338,-0.9112 -3.4623853,-3.27841 -4.1191355,-4.90477 -0.6040283,-1.49581 -0.6040283,-1.49581 -0.6040283,-18.2981 0,-16.8023 0,-16.8023 0.9835655,-18.79241 1.5761887,-3.1892 4.0100053,-4.95483 7.8280449,-5.67891 0.704366,-0.13358 7.292903,-0.24287 14.641199,-0.24287 14.055448,0 16.850118,-0.17138 20.675596,-1.26794 7.408644,-2.12367 11.293693,-5.80143 14.017649,-13.26973 1.051354,-2.88249 1.471557,-4.4625 3.679175,-13.834097 3.231215,-13.716865 5.300366,-18.792494 9.850813,-24.164064 2.93219,-3.461311 8.209061,-6.682592 13.178971,-8.045154 2.602914,-0.713615 2.602914,-0.713615 36.180501,-0.794896 24.48818,-0.05927 33.99801,-4.14e-4 35.13067,0.217398 3.95544,0.760672 6.94502,3.47346 8.06195,7.315543 0.37679,1.296144 0.41665,3.293077 0.35059,17.566371 -0.0746,16.103979 -0.0746,16.103979 -0.90785,17.863169 -0.99129,2.09269 -2.95953,4.26201 -4.75222,5.23772 -2.7394,1.49096 -1.69189,1.45313 -40.36367,1.45804 -37.379483,0.005 -38.216026,0.0274 -43.783649,1.18405 -2.820785,0.58601 -6.854649,1.88486 -8.968642,2.88778 -9.593249,4.55124 -13.581306,11.93567 -16.077974,29.77058 -1.725722,12.32762 -2.364338,15.16607 -4.318127,19.19269 -1.55195,3.19843 -3.454151,5.30494 -5.909873,6.54458 -3.128088,1.57905 -3.304059,1.59471 -17.751997,1.57933 -11.958381,-0.0128 -13.289214,-0.0569 -14.629304,-0.48545 z m 48.773662,0.30424 c 2.600141,-5.07865 3.522166,-7.84003 6.203039,-18.57769 2.458436,-9.84672 3.634873,-13.30634 5.786649,-17.01717 1.398662,-2.41205 2.460194,-3.79709 4.561489,-5.95162 3.263122,-3.3458 7.073941,-5.54484 11.894173,-6.86355 2.602914,-0.71209 2.602914,-0.71209 36.180504,-0.79343 23.67842,-0.0574 34.07639,0.003 35.26949,0.20643 3.64688,0.6203 6.15181,2.4531 7.73785,5.66163 0.98191,1.98637 0.98191,1.98637 1.05481,17.71101 0.0802,17.30374 0.0674,17.47596 -1.50749,20.22856 -0.90747,1.58609 -2.8672,3.49641 -4.37706,4.26668 -2.72187,1.38859 -0.12814,1.32436 -53.48103,1.32436 -27.182305,0 -49.377395,-0.0879 -49.322424,-0.19521 z M 11.555543,115.24897 C 7.4927823,114.3664 4.8033449,111.82687 3.6320399,107.76712 3.2605429,106.47954 3.2195473,104.39657 3.2836743,90.067304 3.3563823,73.82682 3.3563823,73.82682 4.1875058,72.072259 c 1.4612843,-3.084784 4.1446936,-5.172492 7.5760672,-5.894215 0.91769,-0.193015 6.188347,-0.29063 15.747634,-0.291653 15.591682,-0.0017 17.290959,-0.115158 21.527391,-1.437823 5.41374,-1.690231 8.998191,-4.914961 11.333953,-10.196525 1.128635,-2.552052 2.362089,-7.028117 4.158093,-15.089284 3.518286,-15.791461 5.211772,-20.367204 9.43291,-25.487465 2.907951,-3.527366 7.600704,-6.4731502 12.295633,-7.7183302 2.212479,-0.5867981 2.212479,-0.5867981 38.132693,-0.5867981 35.92022,0 35.92022,0 37.67062,0.8292041 2.1728,1.0292956 3.81574,2.6816504 4.94288,4.9712092 0.85517,1.737093 0.85517,1.737093 0.85517,18.271074 0,16.533981 0,16.533981 -0.86108,18.294815 -1.15488,2.361599 -3.18191,4.401295 -5.43405,5.46801 -1.7739,0.840186 -1.7739,0.840186 -38.99557,0.985907 -40.237344,0.157515 -38.551042,0.09915 -44.770131,1.549591 -2.395924,0.558788 -7.040731,2.137978 -8.580405,2.917251 -3.313384,1.676999 -6.619015,4.362522 -8.703985,7.071184 -1.43428,1.863327 -3.179989,5.500373 -4.283811,8.925001 -1.144157,3.549745 -2.024147,7.885398 -3.029965,14.928403 -1.351698,9.465037 -2.348275,13.732335 -4.039182,17.295565 -2.226057,4.69097 -5.442671,7.374 -10.015937,8.35446 -2.244632,0.48122 -25.388387,0.49559 -27.590891,0.0172 z M 10.904812,53.80985 C 6.9412558,52.553045 4.2044401,49.452164 3.5292592,45.453149 3.3580312,44.439013 3.327257,38.475057 3.4412737,28.405958 3.6166528,12.918621 3.6166528,12.918621 4.3183723,11.421261 5.6593666,8.5597595 8.4488704,6.2840749 11.571125,5.5044308 12.370993,5.3047029 17.535631,5.2396036 28.344342,5.2930019 c 15.617485,0.077189 15.617485,0.077189 17.353142,0.9262443 1.85193,0.9059452 3.760413,2.7598457 4.663568,4.5301818 1.201961,2.356036 1.271676,3.381155 1.271676,18.697695 0,15.401854 -0.06501,16.332377 -1.311142,18.775054 -1.202578,2.357253 -3.768588,4.515311 -6.438199,5.414636 -1.54435,0.520253 -2.097414,0.537424 -16.767214,0.520591 C 15.624494,54.144214 11.69352,54.059934 10.904812,53.80985 Z"
       id="path3" /></g></svg>
